<svg id="Layer_1" data-name="Layer 1" xmlns="http://www.w3.org/2000/svg" xmlns:xlink="http://www.w3.org/1999/xlink" viewBox="0 0 1000 1000"><defs><style>.cls-1,.cls-2,.cls-20,.cls-21,.cls-22,.cls-23,.cls-6{fill:none;}.cls-2{clip-rule:evenodd;}.cls-3{clip-path:url(#clip-path);}.cls-4{fill:#f7f6f2;}.cls-5{fill:#111927;}.cls-6{stroke:#603813;stroke-width:7px;}.cls-20,.cls-21,.cls-22,.cls-23,.cls-6{stroke-miterlimit:10;}.cls-7{fill:#603813;}.cls-8{fill:url(#linear-gradient);}.cls-9{fill:url(#linear-gradient-2);}.cls-10{fill:url(#linear-gradient-3);}.cls-11{fill:url(#linear-gradient-4);}.cls-12{fill:url(#linear-gradient-5);}.cls-13{fill:url(#linear-gradient-6);}.cls-14{fill:url(#linear-gradient-7);}.cls-15{fill:url(#linear-gradient-8);}.cls-16{fill:url(#linear-gradient-9);}.cls-17{fill:url(#linear-gradient-10);}.cls-18{fill:url(#linear-gradient-11);}.cls-19{fill:url(#linear-gradient-12);}.cls-20,.cls-21,.cls-22{stroke-width:16px;}.cls-20{stroke:url(#linear-gradient-13);}.cls-21{stroke:url(#linear-gradient-14);}.cls-22{stroke:url(#linear-gradient-15);}.cls-23{stroke:#111927;stroke-width:14px;}.cls-24{clip-path:url(#clip-path-2);}.cls-25{fill:url(#linear-gradient-16);}.cls-26,.cls-27{fill-rule:evenodd;}.cls-26{fill:url(#linear-gradient-17);}.cls-27{fill:#fff;}</style><clipPath id="clip-path"><rect class="cls-1" width="1000" height="1000"/></clipPath><linearGradient id="linear-gradient" x1="263.32" y1="430.47" x2="331.88" y2="430.47" gradientUnits="userSpaceOnUse"><stop offset="0" stop-color="#009b90"/><stop offset="1" stop-color="#24bd29"/></linearGradient><linearGradient id="linear-gradient-2" x1="263.71" y1="506.79" x2="330.99" y2="506.79" xlink:href="#linear-gradient"/><linearGradient id="linear-gradient-3" x1="264.05" y1="468.27" x2="317.69" y2="468.27" xlink:href="#linear-gradient"/><linearGradient id="linear-gradient-4" x1="309.27" y1="361.53" x2="366.53" y2="361.53" xlink:href="#linear-gradient"/><linearGradient id="linear-gradient-5" x1="357.73" y1="332.8" x2="391.68" y2="332.8" xlink:href="#linear-gradient"/><linearGradient id="linear-gradient-6" x1="395.55" y1="312.21" x2="435.36" y2="312.21" xlink:href="#linear-gradient"/><linearGradient id="linear-gradient-7" x1="667.45" y1="430.47" x2="736.01" y2="430.47" xlink:href="#linear-gradient"/><linearGradient id="linear-gradient-8" x1="668.34" y1="506.79" x2="735.61" y2="506.79" xlink:href="#linear-gradient"/><linearGradient id="linear-gradient-9" x1="681.64" y1="468.27" x2="735.28" y2="468.27" xlink:href="#linear-gradient"/><linearGradient id="linear-gradient-10" x1="632.8" y1="361.53" x2="690.06" y2="361.53" xlink:href="#linear-gradient"/><linearGradient id="linear-gradient-11" x1="607.65" y1="332.8" x2="641.6" y2="332.8" xlink:href="#linear-gradient"/><linearGradient id="linear-gradient-12" x1="563.97" y1="312.21" x2="603.78" y2="312.21" xlink:href="#linear-gradient"/><linearGradient id="linear-gradient-13" x1="299.03" y1="393.21" x2="327.75" y2="393.21" xlink:href="#linear-gradient"/><linearGradient id="linear-gradient-14" x1="669.37" y1="393.09" x2="699.19" y2="393.09" xlink:href="#linear-gradient"/><linearGradient id="linear-gradient-15" x1="438" y1="293.97" x2="562.47" y2="293.97" xlink:href="#linear-gradient"/><clipPath id="clip-path-2"><path class="cls-2" d="M499.08,370.58c2.42,4.62,5.38,9.3,8,13.82l.36.1L496.13,391l27.49,11.71,27.49,11.7q1.8-14.83,3.61-29.66t3.61-29.65l-10.75,6.2L525.16,316.5c-6.26-12.55-40.11-14.7-50.62,2.71,0,0-35.39,62-38.72,67.78l40.34,23.29Zm61.79,100.23c-5.22.08-10.73.6-16,.92-.08.1-.17.19-.25.28l-.72-13.07-22.86,19.24-22.85,19.24L523.06,514l24.83,16.61-.69-12.39,50.14.26c14,.08,31.23-29.16,20.44-46.39,0,0-39.35-59.59-43-65.16l-39,25.47Zm-154.34-36L378.9,476.64c-7.74,11.69,7.33,42.09,27.66,42.48l63.14-.3,14.92-.05V472.19H438.78c2.78-4.41,5.36-9.31,8-13.86,0-.13-.06-.25-.1-.37L458,464.51q-1.8-14.83-3.61-29.66t-3.61-29.65l-27.48,11.7-27.49,11.7Z"/></clipPath><linearGradient id="linear-gradient-16" x1="465.38" y1="525.93" x2="541.54" y2="283.65" xlink:href="#linear-gradient"/><linearGradient id="linear-gradient-17" x1="467.92" y1="436.48" x2="526.92" y2="436.48" xlink:href="#linear-gradient"/></defs><g class="cls-3"><circle class="cls-4" cx="500" cy="490" r="415"/><path class="cls-5" d="M234.42,233l9.28,10c-2.08,1.94-3.11,2.92-5.16,4.9L217.29,226c2.22-2.15,3.33-3.21,5.58-5.31l9.34,10c.2-7.68.39-11.55,1-19.31,2.77-2.43,4.17-3.62,7-6-.93,8.66-1.27,13-1.73,21.53,8.75.41,13.07.75,21.57,1.69-2.73,2.27-4.09,3.43-6.78,5.77C245.8,233.64,242,233.37,234.42,233Z"/><path class="cls-5" d="M264.55,192.67c-4.54,3.3-6.79,5-11.24,8.47l4.71,6c3.87-3,5.82-4.5,9.76-7.39,1.15,1.57,1.72,2.36,2.87,3.92-3.9,2.85-5.83,4.31-9.65,7.3l5,6.38c4.22-3.29,6.35-4.9,10.66-8,1.17,1.62,1.75,2.43,2.93,4-6.5,4.72-9.7,7.18-16,12.28l-19.24-23.76c6.81-5.53,10.27-8.18,17.29-13.29Z"/><path class="cls-5" d="M273.34,180.49l14.33,21.32c3.81-2.57,5.73-3.82,9.6-6.26l2.58,4.11c-6.14,3.87-9.18,5.89-15.17,10.09q-8.74-12.51-17.5-25C269.64,183,270.87,182.16,273.34,180.49Z"/><path class="cls-5" d="M287.5,171.37c2.53-1.55,3.8-2.31,6.35-3.82,3.84,6.52,5.75,9.78,9.59,16.29,2.13,3.62,5.45,4.18,9.28,2s5.1-5.32,3.1-9c-3.59-6.65-5.39-10-9-16.63,2.61-1.41,3.92-2.1,6.55-3.46,3.46,6.7,5.19,10.05,8.66,16.75,3.69,7.15-.19,13.58-6.68,17.24s-13.79,3.57-18-3.29Z"/><path class="cls-5" d="M332.08,147.68c8-3.63,13.68-1.31,15.64,3.41,1.43,3.44.68,7.79-3.9,11.23,5,3.2,7.51,4.84,12.38,8.19-2.88,1.19-4.32,1.8-7.18,3.05-4.63-3.16-7-4.71-11.77-7.75l-3,1.4c2,4.3,3.05,6.45,5.08,10.76-2.44,1.16-3.66,1.75-6.1,2.95q-6.76-13.68-13.55-27.37C324.62,151.11,327.1,149.94,332.08,147.68Zm1.86,4.73c-2.19,1-3.29,1.5-5.47,2.54,1.53,3.24,2.3,4.86,3.83,8.11,2.14-1,3.21-1.51,5.36-2.49,3.58-1.62,4.48-4,3.37-6.48S337.6,150.74,333.94,152.41Z"/><path class="cls-5" d="M379,155.81c-5.13,1.71-7.68,2.61-12.76,4.51,0,2.49,0,3.74,0,6.23-2.63,1-4,1.52-6.57,2.57,0-11.05.28-22,.74-33,3.18-1.16,4.77-1.72,8-2.81,7.3,8.29,14.37,16.65,21.34,25.23-2.71.83-4.06,1.26-6.75,2.14C381.32,158.7,380.53,157.73,379,155.81Zm-12.3-14.47c-.23,5.51-.32,8.25-.42,13.74,3.74-1.38,5.62-2,9.39-3.32C372.09,147.56,370.29,145.47,366.65,141.34Z"/><path class="cls-5" d="M411.21,139.23c-5.74,1.34-8.6,2.06-14.29,3.62,1.37,5,2.06,7.52,3.44,12.53-2.58.71-3.86,1.08-6.43,1.83q-4.31-14.65-8.62-29.3c2.78-.81,4.17-1.21,6.95-2,1.34,4.84,2,7.26,3.33,12.1,5.77-1.58,8.67-2.31,14.48-3.67l-2.87-12.22c2.81-.66,4.21-1,7-1.58q3.22,14.93,6.44,29.85c-2.6.56-3.9.85-6.5,1.46C413,146.82,412.39,144.29,411.21,139.23Z"/><path class="cls-5" d="M446.33,140c-5.3.75-7.95,1.17-13.24,2.11-.46,2.44-.69,3.67-1.13,6.11-2.75.51-4.12.77-6.86,1.33,2-10.85,4.18-21.57,6.59-32.33,3.3-.56,4.95-.83,8.26-1.32,5.65,9.48,11.06,19,16.33,28.68-2.79.33-4.18.5-7,.88C448.13,143.22,447.54,142.13,446.33,140Zm-9.42-16.46c-1.2,5.37-1.77,8-2.85,13.42,3.89-.67,5.84-1,9.75-1.55C441.11,130.59,439.73,128.22,436.91,123.49Z"/><path class="cls-5" d="M488,111.59l.9,30.56c-2.65.08-4,.13-6.63.26-6.4-8.09-9.76-12.08-16.81-19.88.73,8.35,1.09,12.53,1.82,20.88-2.64.23-4,.35-6.61.63q-1.59-15.21-3.2-30.41c2.86-.3,4.29-.44,7.15-.69,7.21,7.81,10.65,11.79,17.2,19.9-.4-8.39-.59-12.59-1-21C483.74,111.73,485.17,111.67,488,111.59Z"/><path class="cls-5" d="M518.15,142.74c-6.86-.33-12.11-3.72-12.11-9.49,2.91,0,4.36.08,7.27.18.11,2.45,1.82,4.12,4.94,4.27s5.12-1.25,5.26-3.44c.4-6.59-17.37-3.31-17.16-14.35.1-5.5,5.37-8.79,12.75-8.44s12.09,3.94,12.11,9.47c-3.08-.24-4.62-.34-7.71-.52,0-2-1.84-3.69-4.84-3.89-2.76-.2-4.9.89-5,3.39-.21,6.12,17.73,3.72,16.88,14.44C530.16,139.16,525.67,143.1,518.15,142.74Z"/><path class="cls-5" d="M556.58,140.37c-5.3-.79-8-1.14-13.28-1.74-1.15,2.21-1.71,3.32-2.83,5.54-2.77-.3-4.16-.44-6.94-.69,5-9.83,10.15-19.48,15.53-29.11,3.32.4,5,.62,8.29,1.09,2.7,10.69,5.17,21.35,7.46,32.14-2.77-.49-4.16-.72-6.94-1.15C557.37,144,557.11,142.8,556.58,140.37Zm-4.32-18.45c-2.69,4.8-4,7.21-6.57,12,3.92.46,5.87.72,9.78,1.28C554.25,129.92,553.61,127.25,552.26,121.92Z"/><path class="cls-5" d="M574.83,118.37c3.21.6,4.82.92,8,1.58,2.62,9.82,3.8,14.74,5.9,24.57,6.3-7.84,9.57-11.7,16.35-19.3,3.15.84,4.72,1.28,7.85,2.18l-8.49,29.34c-2.57-.74-3.85-1.1-6.43-1.79l5.18-19.18c-5.7,6.69-8.46,10.09-13.82,17-2-.48-2.94-.71-4.91-1.16-1.7-8.55-2.65-12.82-4.74-21.36l-4,19.46c-2.61-.54-3.92-.79-6.53-1.28Q572,133.38,574.83,118.37Z"/><path class="cls-5" d="M624.46,163.12c-5.44-1.9-8.18-2.8-13.68-4.5q4.5-14.58,9-29.18c5.69,1.75,8.52,2.68,14.15,4.64,7.15,2.49,9.88,7.15,8.25,11.4-1.32,3.47-4.55,4.72-8.07,4.46a7.59,7.59,0,0,1,3.67,9.27C636.05,163.74,631,165.42,624.46,163.12Zm6.89-24.7c-2.48-.86-3.72-1.28-6.21-2.09l-2.38,7.28c2.44.79,3.65,1.2,6.08,2,3.13,1.08,5.37.51,6.22-1.84S634.54,139.52,631.35,138.42Zm-3.59,11.86c-2.58-.9-3.88-1.33-6.48-2.18-1,3.12-1.54,4.68-2.56,7.81,2.6.85,3.89,1.29,6.48,2.19,3.12,1.08,5.44.4,6.32-2S631,151.39,627.76,150.28Z"/><path class="cls-5" d="M651.2,140.54c2.7,1.08,4,1.64,6.74,2.77q-5.94,14.07-11.87,28.14c-2.49-1-3.74-1.56-6.24-2.56Z"/><path class="cls-5" d="M677,151.92c7.91,3.83,9.82,9.7,7.45,14.24-1.73,3.29-5.58,5.48-11.18,4.15.78,5.93,1.11,8.89,1.68,14.78-2.78-1.46-4.18-2.18-7-3.59-.55-5.59-.87-8.39-1.6-14-1.19-.57-1.79-.85-3-1.4-2,4.32-3,6.47-5,10.79-2.46-1.14-3.69-1.7-6.16-2.79l12.37-27.93C669.54,148.38,672,149.53,677,151.92Zm-2.44,4.45c-2.18-1.05-3.27-1.57-5.46-2.58-1.52,3.25-2.27,4.88-3.78,8.13,2.14,1,3.21,1.5,5.33,2.53,3.55,1.71,5.93.92,7.17-1.55S678.15,158.13,674.52,156.37Z"/><path class="cls-5" d="M693.56,196c-8.25-5-12.07-14.35-7.7-22.44s14.89-9.75,23.83-4.37,12.42,15.56,7.35,23.17S701.86,201,693.56,196Zm2.82-4.69c5.36,3.23,11.14,2.24,14.49-3s1.62-11-4-14.4-11.55-2.24-14.61,3.17S691,188,696.38,191.27Z"/><path class="cls-5" d="M728.43,181.69c9,6.15,13.46,9.39,22.15,16.22l-3.05,3.89c-3.12-2.45-4.69-3.65-7.85-6l-15.29,20.53c-2.23-1.66-3.35-2.48-5.6-4.1l14.9-20.81c-3.2-2.29-4.8-3.42-8-5.62C726.76,184.14,727.31,183.32,728.43,181.69Z"/><path class="cls-5" d="M748,235.84c-7.45-6.56-9.72-16.61-4-23.79s16.57-6.81,24.64.31,9.88,17.94,3.52,24.51S755.45,242.44,748,235.84Zm3.61-4.1c4.83,4.25,10.81,4.42,15-.12S770.08,221,765,216.49s-11.22-4.47-15.19.31S746.71,227.44,751.58,231.74Z"/><path class="cls-5" d="M262.35,254.2c4.2-3.87,8.13-3.7,10.27-1.26,1.55,1.78,1.95,4.58-.22,7.66,3.73.86,5.58,1.31,9.26,2.26-1.56,1.37-2.34,2.06-3.88,3.45-3.48-.91-5.24-1.35-8.78-2.17l-1.58,1.48,5.17,5.49c-1.31,1.23-2,1.86-3.26,3.12l-13.47-13.9C258.44,257.84,259.73,256.61,262.35,254.2Zm2.06,2.48c-1.16,1.07-1.74,1.6-2.89,2.69l3.9,4.13,2.84-2.64c1.9-1.76,2-3.37.83-4.67S266.34,254.89,264.41,256.68Z"/><path class="cls-5" d="M271.89,245.72l3.6-3.05,7.67,9.21c1.7,2,3.87,2,6.08.23s2.69-3.93,1-6l-7.41-9.4c1.48-1.17,2.22-1.75,3.72-2.9l7.26,9.48c3.11,4,1.32,8.56-2.44,11.62s-8.43,3.78-11.75-.09Z"/><path class="cls-5" d="M290.17,231.07c1.7-1.27,2.55-1.9,4.26-3.14,5.76,2.94,8.6,4.45,14.2,7.58-1-6.34-1.38-9.53-2.11-15.95,1.74-1.16,2.61-1.73,4.36-2.85L321.32,233c-1.47.94-2.2,1.42-3.66,2.38l-6.92-10.51c.74,5.54,1.16,8.29,2.07,13.77l-2.72,1.89c-4.82-2.77-7.25-4.13-12.2-6.76l7.4,10.19c-1.42,1-2.13,1.56-3.54,2.61Z"/><path class="cls-5" d="M334.51,220.73c-3,1.72-4.52,2.6-7.5,4.4.26,1.56.4,2.34.68,3.9-1.56.95-2.34,1.43-3.88,2.4-1.48-8.23-2.14-12.37-3.27-20.72,1.83-1.1,2.76-1.64,4.61-2.7,6.71,5.08,10,7.69,16.42,13-1.61.87-2.41,1.31-4,2.21Zm-9.42-7.5c.51,3.46.78,5.18,1.34,8.62,2.2-1.31,3.3-2,5.51-3.23C329.22,216.45,327.85,215.37,325.09,213.23Z"/><path class="cls-5" d="M352.57,206.13c-3.39,1.63-5.07,2.47-8.42,4.2l3.78,7.32c-1.53.79-2.29,1.19-3.82,2L335,202.57c1.61-.86,2.42-1.28,4-2.12l3.65,7.07c3.38-1.74,5.08-2.59,8.5-4.24-1.38-2.86-2.07-4.3-3.46-7.17,1.64-.79,2.46-1.17,4.11-1.94L360,211.72c-1.55.72-2.33,1.09-3.88,1.83Z"/><path class="cls-5" d="M377.39,204.44c-4.1,1.63-8.07,1-9.56-2.3,1.71-.73,2.57-1.09,4.29-1.8.7,1.39,2.14,1.91,4,1.17s2.65-2.09,2.15-3.38c-1.51-3.9-11,2.65-13.7-3.8-1.36-3.21.83-6.46,5.15-8.18s8-.91,9.45,2.27c-1.83.68-2.74,1-4.57,1.73-.55-1.15-2-1.63-3.81-1-1.63.61-2.58,1.79-2,3.26,1.47,3.59,11.19-2.53,13.57,3.87C383.44,199.17,381.88,202.65,377.39,204.44Z"/><path class="cls-5" d="M399,192.63c-3.24,1-4.86,1.56-8.09,2.67-.05,1.58-.08,2.37-.12,3.94-1.69.59-2.53.89-4.21,1.5.22-8.33.41-12.51,1-20.88,2-.67,3-1,5-1.64,5.44,6.4,8.09,9.64,13.2,16.21-1.71.51-2.57.77-4.28,1.3C400.45,194.49,400,193.87,399,192.63Zm-7.56-9.33c-.2,3.48-.29,5.21-.43,8.68,2.37-.8,3.56-1.19,5.94-1.95C394.74,187.32,393.64,186,391.41,183.3Z"/><path class="cls-5" d="M403.09,175c2-.56,2.93-.84,4.9-1.37,4.25,4.81,6.32,7.25,10.36,12.17,1.24-6.24,1.92-9.36,3.4-15.6,2-.45,3-.67,4.93-1.09,1.62,7.57,2.42,11.36,4,18.93-1.65.35-2.47.53-4.12.91-1.12-4.91-1.67-7.37-2.79-12.28-1.17,5.43-1.71,8.14-2.7,13.57l-3.11.77c-3.45-4.32-5.21-6.46-8.81-10.69,1.32,4.85,2,7.28,3.32,12.14-1.63.44-2.45.67-4.08,1.14C406.29,186.2,405.22,182.48,403.09,175Z"/><path class="cls-5" d="M441.11,178.5c-1.42.25-2.13.37-3.55.64.55,2.92.83,4.38,1.37,7.3l-4.14.8-3.8-19c3.21-.65,4.82-1,8.05-1.52,5.27-.92,8.32,1.31,8.82,4.63C448.31,174.28,446.56,177.54,441.11,178.5Zm-.73-3.06c2.42-.42,3.31-1.66,3-3.36s-1.55-2.61-4-2.18c-1.38.24-2.07.37-3.45.63.41,2.21.62,3.31,1,5.53C438.34,175.8,439,175.68,440.38,175.44Z"/><path class="cls-5" d="M465.21,178.91c-3.36.35-5,.54-8.39,1l-.9,3.83c-1.75.24-2.62.36-4.37.62,1.85-8.11,2.87-12.16,5.08-20.25l5.15-.6c4,7.36,5.94,11.07,9.62,18.54-1.78.15-2.66.23-4.43.41C466.27,181,465.92,180.32,465.21,178.91Zm-5.5-10.66c-.88,3.36-1.31,5-2.13,8.41,2.46-.31,3.69-.45,6.15-.72C462.15,172.86,461.35,171.32,459.71,168.25Z"/><path class="cls-5" d="M487.05,172.81c-3.67.14-5.51.23-9.19.47l.54,8.22c-1.68.11-2.52.17-4.19.3-.6-7.72-.91-11.58-1.51-19.3,1.78-.14,2.66-.2,4.44-.31.21,3.17.31,4.76.52,7.94,3.71-.24,5.56-.34,9.27-.48l-.3-8c1.78-.07,2.67-.1,4.45-.14.19,7.74.29,11.61.49,19.34-1.68,0-2.52.07-4.2.14C487.24,177.74,487.18,176.1,487.05,172.81Z"/><path class="cls-5" d="M521.83,171.84c-.38,5.84-5,9.32-11.66,9.11-2.93-.09-4.39-.12-7.32-.14.07-7.74.1-11.61.17-19.35,3.1,0,4.65,0,7.75.15C517.85,161.83,522.2,166,521.83,171.84Zm-11.71,5.81c4.46.13,7.09-2,7.29-6.06s-2.28-6.58-6.9-6.72l-3.12-.08c-.11,5.12-.16,7.67-.27,12.78Z"/><path class="cls-5" d="M525.77,162.39c1.78.13,2.67.2,4.44.35-.67,7.71-1,11.57-1.67,19.28-1.67-.14-2.51-.21-4.19-.33C524.92,174,525.2,170.11,525.77,162.39Z"/><path class="cls-5" d="M554.08,171.51c-2-.31-3-.46-5-.75a5.62,5.62,0,0,0-4.77-3.16c-3.91-.5-6.9,1.66-7.32,5.5s2,6.61,5.88,7.11c3.25.42,5.57-1,6.61-3.59-2.92-.43-4.39-.63-7.32-1,.15-1.17.22-1.76.37-2.94,4.66.58,7,.91,11.62,1.65-.21,1.34-.32,2-.54,3.34-1.47,3.75-5.79,6.7-11.34,6-6-.78-10.26-5.25-9.71-11s5.83-9.41,12.21-8.59C549.71,164.68,553.3,167.46,554.08,171.51Z"/><path class="cls-5" d="M558.8,166.38c1.75.3,2.63.45,4.39.77-1.4,7.62-2.09,11.42-3.49,19-1.66-.3-2.49-.45-4.15-.73Z"/><path class="cls-5" d="M566.35,167.74c6.41,1.23,9.61,1.92,16,3.45l-.73,3.05c-2.3-.55-3.44-.82-5.74-1.33-1.41,6.33-2.12,9.5-3.54,15.83-1.65-.37-2.47-.54-4.12-.89,1.33-6.35,2-9.52,3.33-15.87-2.3-.49-3.45-.72-5.76-1.16C566,169.59,566.11,169,566.35,167.74Z"/><path class="cls-5" d="M594.29,190.59c-3.27-1-4.9-1.41-8.19-2.28-.92,1.28-1.38,1.92-2.29,3.21-1.72-.45-2.58-.67-4.3-1.09,4.8-6.8,7.28-10.17,12.42-16.81,2,.54,3,.82,5,1.4.95,8.33,1.33,12.5,1.92,20.8-1.71-.53-2.56-.79-4.28-1.3Zm-1.07-12c-2.1,2.78-3.14,4.17-5.19,7,2.41.64,3.61,1,6,1.67C593.74,183.82,593.57,182.09,593.22,178.63Z"/><path class="cls-5" d="M611.79,179.66c-2.08,6.17-3.12,9.26-5.19,15.43,2.67.89,4,1.35,6.66,2.31-.42,1.16-.63,1.74-1,2.89-4.24-1.51-6.36-2.24-10.63-3.61l5.93-18.42C609.23,178.81,610.08,179.09,611.79,179.66Z"/><path class="cls-5" d="M628.25,206.74c-4.08-1.71-6.48-4.9-5.2-8.33,1.73.67,2.59,1,4.31,1.72-.47,1.48.2,2.86,2,3.63s3.36.38,3.91-.9c1.66-3.84-9.69-5.79-7.12-12.31,1.28-3.24,5.12-4,9.41-2.23s6.34,4.94,5.17,8.25c-1.79-.8-2.69-1.2-4.49-2,.42-1.21-.3-2.59-2-3.36s-3.1-.53-3.7.93c-1.47,3.6,9.78,6.05,7,12.27C636.29,207.23,632.72,208.61,628.25,206.74Z"/><path class="cls-5" d="M646.71,193.5c1.65.76,2.47,1.15,4.11,1.93L642.5,212.9c-1.55-.73-2.32-1.1-3.88-1.81Z"/><path class="cls-5" d="M662.45,201.23c4.85,2.54,5.94,6.25,4.37,9.09-1.14,2.06-3.6,3.41-7.11,2.48.39,3.76.55,5.64.83,9.39-1.75-1-2.62-1.45-4.38-2.39-.26-3.56-.4-5.34-.74-8.91l-1.85-.95-3.42,6.73c-1.53-.78-2.3-1.16-3.84-1.92,3.42-6.95,5.12-10.43,8.54-17.37C657.91,198.88,659.43,199.65,662.45,201.23ZM660.82,204c-1.34-.7-2-1-3.36-1.73l-2.57,5.07,3.3,1.7c2.19,1.14,3.71.67,4.53-.87S663.05,205.17,660.82,204Z"/><path class="cls-5" d="M683.07,216.6c-2.93-1.82-4.41-2.71-7.38-4.45l-2.45,4.19c2.6,1.52,3.89,2.3,6.46,3.88l-1.62,2.62c-2.54-1.57-3.82-2.34-6.4-3.85-1,1.78-1.55,2.66-2.59,4.43,2.86,1.68,4.28,2.53,7.1,4.29-.66,1.07-1,1.61-1.66,2.68-4.27-2.65-6.43-3.93-10.78-6.41l9.57-16.85c4.61,2.62,6.89,4,11.42,6.78Z"/><path class="cls-5" d="M684.05,236.76c-3.76-2.51-5.57-6.15-3.67-9.28,1.6,1,2.4,1.54,4,2.58-.74,1.37-.33,2.86,1.37,4s3.29,1.05,4.07-.09c2.36-3.46-8.61-7.69-4.85-13.6,1.88-2.94,5.84-2.94,9.8-.3s5.43,6.17,3.66,9.2c-1.64-1.15-2.47-1.73-4.13-2.86.64-1.11.18-2.61-1.42-3.73s-3-1.15-3.86.17c-2.13,3.25,8.66,8,4.74,13.54C692,238.89,688.17,239.52,684.05,236.76Z"/><path class="cls-5" d="M704.92,227.46c1.71,1.24,2.57,1.87,4.27,3.13-1.06,6.39-1.65,9.56-2.93,15.86,5.78-2.8,8.7-4.15,14.64-6.75,1.65,1.34,2.47,2,4.1,3.38l-12.41,14.85c-1.37-1.14-2.05-1.71-3.43-2.83l7.94-9.77c-5.08,2.35-7.6,3.57-12.56,6.07l-2.65-2.06c1.19-5.44,1.74-8.18,2.76-13.69l-7.48,10.12c-1.42-1.05-2.13-1.57-3.55-2.6Z"/><path class="cls-5" d="M728.65,267.22c-2.64-2.47-4-3.68-6.66-6.06-1.43.71-2.14,1.07-3.55,1.79-1.41-1.24-2.12-1.85-3.55-3.07,7.46-3.83,11.25-5.66,19-9.17,1.64,1.47,2.46,2.22,4.09,3.72-2.75,8-4.2,12-7.27,19.8-1.37-1.33-2.06-2-3.45-3.3C727.8,269.45,728.09,268.71,728.65,267.22Zm4.22-11.35c-3.18,1.49-4.76,2.25-7.9,3.79,2,1.75,2.95,2.64,4.89,4.44C731.09,260.83,731.69,259.18,732.87,255.87Z"/><path class="cls-5" d="M202.33,714c-1.51-1.83-2.27-2.75-3.76-4.6L190.34,716c-1.84-2.29-2.75-3.44-4.55-5.77,8.7-6.74,13.05-10.12,21.74-16.87,3.09,4,4.66,5.93,7.84,9.77,5.2,6.27,5.12,11.73,1.55,14.9C213.8,720.84,208.16,721,202.33,714Zm3.24-3.08c2.52,3.05,4.84,3.37,6.69,1.78s1.94-3.91-.54-6.89c-1.39-1.68-2.08-2.53-3.45-4.23l-6.23,5C203.44,708.34,204.15,709.21,205.57,710.92Z"/><path class="cls-5" d="M222.72,736.73c-1.62-1.68-2.42-2.52-4-4.22L211,739.77c-2-2.09-3-3.15-4.89-5.28l20.33-18.55c3.32,3.65,5,5.44,8.4,8.95,5.57,5.73,5.86,11.14,2.56,14.58C234.52,742.48,229,743.15,222.72,736.73Zm3-3.33c2.7,2.79,5,2.91,6.74,1.17s1.64-4-1-6.75c-1.49-1.54-2.23-2.31-3.7-3.87l-5.82,5.5C223.43,731,224.19,731.83,225.71,733.4Z"/><path class="cls-5" d="M241.3,752.34l-8.23,9.1c-2.09-1.9-3.13-2.86-5.19-4.8l18.82-20.09c1.92,1.81,2.89,2.7,4.83,4.47l-8.28,9.16c7-.35,10.4-.62,17.2-1.31,2.41,2,3.62,3,6.05,5-7.59.85-11.44,1.18-19.23,1.6.66,8,1.1,12,2.19,20-2.74-2.23-4.1-3.36-6.8-5.66C242,762.83,241.68,759.32,241.3,752.34Z"/><path class="cls-5" d="M275.28,795.17c-8-5.49-10.88-15-5.91-21.63s14.36-6.77,21.81-1.68,10.58,13.87,6.24,20.88S283.34,800.68,275.28,795.17Zm2.78-4.08c5.06,3.47,10.57,2.71,13.6-2s1.55-9.82-3.28-13.12-10.19-2.88-13.47,1.66S273,787.6,278.06,791.09Z"/><path class="cls-5" d="M319,789.54c6.64,3.71,8.27,8.8,6.15,12.9-1.55,3-5.07,5-10.29,3.52.64,5.43,1,8.15,1.84,13.61-2.8-1.45-4.19-2.18-7-3.69-.58-5.2-.83-7.79-1.25-13-1.09-.62-1.64-.93-2.72-1.56l-5.38,9.29c-2.36-1.37-3.54-2.06-5.88-3.47l14.2-23.6C312.75,786,314.81,787.22,319,789.54Zm-2.44,3.88c-1.87-1-2.8-1.58-4.67-2.65l-4.05,7c1.91,1.1,2.86,1.64,4.77,2.71,3.2,1.79,5.41,1.13,6.6-1.05S319.65,795.17,316.52,793.42Z"/><path class="cls-5" d="M334.1,797.54c2.57,1.28,3.86,1.91,6.45,3.13.09,9.11.25,13.69.79,22.88,7.16-5.79,10.65-8.76,17.45-14.83,2.62,1.07,3.93,1.59,6.57,2.61l-10,25.67c-2.51-1-3.76-1.47-6.26-2.48l6.77-16.58c-5.9,5.34-8.91,8-15.08,13.09-1.88-.81-2.81-1.22-4.68-2.06-.37-8-.47-12-.52-20l-7.73,16.16c-2.44-1.17-3.66-1.76-6.09-3Z"/><path class="cls-5" d="M382.59,840.9c-5-1.55-7.51-2.37-12.49-4.09-1.51,1.69-2.27,2.54-3.81,4.22-2.66-.94-4-1.42-6.63-2.41,7-7.12,13.74-14.51,20.25-22,2.75.93,4.13,1.38,6.9,2.26.74,9.92,1.78,19.87,3.12,29.72-2.72-.77-4.08-1.17-6.79-2C382.91,844.3,382.8,843.16,382.59,840.9Zm-1.26-17.12c-3.19,3.8-4.8,5.69-8.09,9.43,3.58,1.23,5.37,1.82,9,2.95C381.8,831.2,381.63,828.72,381.33,823.78Z"/><path class="cls-5" d="M399.52,822.65c2.57.71,3.86,1.06,6.44,1.72,0,8.83,0,13.25.22,22.1,4.62-7.68,6.87-11.55,11.22-19.33,2.7.6,4.06.9,6.77,1.45.6,8.81,1,13.21,1.85,22,3.88-7.92,5.75-11.9,9.39-19.9,2.63.46,3.95.67,6.6,1.08-4.25,8.65-8.74,17.24-13.41,25.67-3.1-.55-4.64-.85-7.73-1.46-.9-8.17-1.29-12.26-1.95-20.42-4.09,7.14-6.2,10.68-10.54,17.72-3.05-.69-4.57-1-7.61-1.81C400.12,841.91,399.7,832.26,399.52,822.65Z"/><path class="cls-5" d="M462.74,856.79c-5.2-.47-7.79-.76-13-1.41-1.12,2-1.69,3-2.83,4.93-2.77-.37-4.16-.56-6.93-1,5.29-8.42,10.36-17.06,15.12-25.79,2.86.34,4.3.5,7.17.78,2.75,9.55,5.81,19.07,9.14,28.43-2.81-.2-4.21-.31-7-.55C463.74,860.05,463.4,859,462.74,856.79ZM458,840.31c-2.31,4.38-3.5,6.56-5.92,10.91,3.73.45,5.59.65,9.32,1C460,847.47,459.29,845.08,458,840.31Z"/><path class="cls-5" d="M501.49,863.7c-5.72,0-8.58,0-14.29-.17.32-11,.49-16.51.82-27.51,5.09.15,7.63.18,12.73.16,6.45,0,10.12,2.81,10.26,6.91.1,3.35-2.15,5.52-5.25,6.44a7.09,7.09,0,0,1,6.41,6.5C512.31,860.41,508.38,863.65,501.49,863.7Zm-1.62-23.06c-2.29,0-3.43,0-5.73,0l-.08,6.9c2.33,0,3.49,0,5.83,0,3,0,4.72-1.23,4.69-3.47S502.82,840.63,499.87,840.64Zm.49,11.15c-2.54,0-3.82,0-6.36,0l-.1,7.42c2.65,0,4,0,6.63,0,3.19,0,5.05-1.36,5-3.68S503.49,851.78,500.36,851.79Z"/><path class="cls-5" d="M534.72,838.94c-4.72.45-7.09.64-11.82.94.18,2.76.26,4.13.44,6.89,4.28-.27,6.41-.44,10.68-.83l.4,4.36c-4.31.39-6.47.56-10.8.83.19,2.92.28,4.37.47,7.28,5-.31,7.45-.51,12.41-1,.17,1.79.26,2.69.43,4.48-7.67.72-11.51,1-19.2,1.36l-1.3-27.53c7.16-.34,10.73-.59,17.86-1.27C534.47,836.26,534.55,837.15,534.72,838.94Z"/><path class="cls-5" d="M539.89,833.93c2.79-.3,4.19-.47,7-.83,5,7.61,7.55,11.38,12.93,18.82,2.82-8.73,4.12-13.1,6.5-21.86,2.76-.51,4.13-.78,6.88-1.33,2.21,10.78,3.32,16.17,5.53,27-2.61.53-3.92.79-6.54,1.28-1.32-7-2-10.56-3.31-17.6-2,7.66-3.11,11.49-5.47,19.13-2,.32-3,.48-5,.78-4.61-6.55-6.84-9.86-11.14-16.53.91,7.1,1.37,10.65,2.28,17.75-2.64.34-4,.5-6.61.79Z"/><path class="cls-5" d="M589.46,825c7.43-1.86,11.12-2.89,18.46-5.14.53,1.7.79,2.55,1.32,4.26-5,1.54-7.54,2.26-12.6,3.62l1.85,6.82c4-1.07,5.92-1.62,9.84-2.79.51,1.67.76,2.51,1.26,4.19-4,1.18-6,1.75-10,2.82l3,11.23c-2.59.7-3.88,1-6.48,1.68C593.5,841.05,592.15,835.71,589.46,825Z"/><path class="cls-5" d="M612.13,818.57c2.38-.76,3.57-1.15,5.93-2,3.56,10.42,5.33,15.63,8.89,26.06-2.55.86-3.82,1.28-6.38,2.1C617.2,834.29,615.51,829.05,612.13,818.57Z"/><path class="cls-5" d="M635.16,826.71l4.35,11.47c-2.52,1-3.78,1.42-6.31,2.32l-9.32-25.91c2.36-.84,3.53-1.27,5.87-2.15L634.13,824c2.64-6.27,3.88-9.42,6.2-15.72,2.8-1.16,4.2-1.75,7-3-2.55,7.07-3.92,10.6-6.88,17.64,7.17,3.14,10.83,4.63,18.3,7.42-3.13,1.37-4.7,2-7.85,3.34C644.47,831,641.33,829.63,635.16,826.71Z"/><path class="cls-5" d="M661,799c2.27-1.11,3.4-1.67,5.65-2.82l7.75,15.18c1.72,3.38,4.84,4,8.61,2s5.05-5,3.21-8.3L678,790.13c2.24-1.23,3.35-1.86,5.57-3.14l8.5,14.72c3.63,6.29-.17,12.61-6.74,16.1s-13.63,3-16.81-3.57Z"/><path class="cls-5" d="M720.21,779.84c4.81,6.79,2.13,15.43-7.07,21.35-4,2.59-6.06,3.85-10.15,6.3-5.67-9.44-8.5-14.17-14.17-23.62,3.81-2.28,5.7-3.45,9.45-5.86C706.84,772.5,715.38,773,720.21,779.84Zm-9.81,17.53c6-3.85,7.45-8.91,4.23-13.64s-8.32-5.35-14-1.68c-1.54,1-2.32,1.48-3.87,2.45l9.63,15.43C708,798.92,708.78,798.4,710.4,797.37Z"/><path class="cls-5" d="M716.16,765.75c2.08-1.53,3.12-2.3,5.18-3.86l16.59,22c-2.22,1.68-3.33,2.51-5.57,4.14Z"/><path class="cls-5" d="M747.59,740c7.43,8.14,11.14,12.22,18.57,20.37-2.08,1.91-3.13,2.85-5.24,4.72-9.77-1.45-14.58-2.33-24-4.4l11.9,14.68c-2.17,1.77-3.26,2.64-5.45,4.36l-17-21.72c2-1.6,3-2.41,5.07-4.06,9.34,2.17,14.1,3.1,23.77,4.65l-12.5-14.21C744.67,742.6,745.65,741.72,747.59,740Z"/><path class="cls-5" d="M752.29,735.61c1.92-1.82,2.87-2.74,4.76-4.6L769,743.19c2.65,2.71,5.9,2.3,9-.91s3.55-6.53.8-9.13l-12.35-11.74c1.85-1.95,2.77-2.94,4.59-4.94L783.59,728c5.35,4.9,3.39,12.34-2.09,17.92S768.94,753.25,764,748Z"/><path class="cls-5" d="M804.34,720.53c-4.83,5.83-10.92,8.16-14.88,4.78,2-2.28,3-3.43,5-5.75,1.81,1.27,4.16.78,6.3-1.8s2.36-5.07.82-6.31c-4.63-3.74-13.61,12.42-21,5.8-3.7-3.3-2.69-8.94,1.77-14.3s9.61-7.37,13.81-4.67c-1.89,2.43-2.84,3.63-4.77,6-1.5-1-3.74-.46-5.65,1.74-1.76,2-2.28,4.24-.57,5.7,4.2,3.58,13.13-12.28,20.8-6.34C809.35,708,809.63,714.14,804.34,720.53Z"/><path class="cls-6" d="M370.89,562.75v-48.5s-1.21-11.62-16.43-12.8"/><circle class="cls-6" cx="347.76" cy="501.49" r="7.3"/><path class="cls-6" d="M359.53,572.89V535.38s-.94-9-12.7-9.89"/><circle class="cls-6" cx="341.65" cy="525.52" r="5.65"/><path class="cls-6" d="M379.81,572.08V543.63s.72-6.82,9.64-7.51"/><circle class="cls-6" cx="393.38" cy="536.14" r="4.28"/><path class="cls-7" d="M709.8,579.65a58.24,58.24,0,0,0-13.26-9.12c-13.56-6.89-28.76-8.74-43.32-12.78a4.88,4.88,0,0,0-1.2-.18h0a2.23,2.23,0,0,0-1.54.39c-6.07,6.43-14.17,3-21.23,4.22-16.59,2.81-33.25,3.6-50.11.52S547.4,547.71,537,536c-13.89,3.63-39.47,10.39-76.45.31-16.9,20.94-42.62,30.85-72.36,27.21-33.23-4.07-65.1-13.58-97.09-22.8-7-2-14.1-3.66-21.17-5.42-2.47-.61-5.12-1.41-6.36,2-2.55,7,5.92,22.68,13.43,24.32,9.91,2.17,19.91,3.91,29.86,5.88,1.8.35,4.24.18,4.9,2.22.92,2.87-2,3.63-3.68,4.76-5.29,3.49-10.46,7.28-16.11,10.08-8.15,4-8.62,9.08-3.44,15.74a33,33,0,0,1,3.05,4.82c3.41,6.45,7.2,7.84,13.32,2.52a124.45,124.45,0,0,1,18.63-13.12c12.48-7.36,25.69-12.47,40.66-10.33,11.15,1.59,12.07,3.45,6,13.12a211.1,211.1,0,0,1-36.91,44.53c-2,1.85-5.67,3.75-4.4,6.71,2.84,6.63,8.86,10.76,14.83,14.21,4.41,2.54,7.49-1.71,10.52-4.43,16.43-14.77,28.33-33.21,41.2-50.89,13.59-18.69,32.08-28.26,55.21-28.67,11.72-.21,12.49,1.14,9.19,12.74a192,192,0,0,1-57.57,92.3c-11.43,10.25-11.12,10.65,3.85,17,4.6,1.94,9.7,5.12,13.82-.24s9.92-8.83,15-13.1c14-11.82,15.93-11.16,21.52,6.62.28.9.24,1.91.53,2.8,6,18.09,10.29,21.67,24.1,21.11,5.95-.24,7.68-2,5.94-8.22-3.37-12-8.69-23.13-13.29-34.59-11.52-28.75.55-53.44,20-72,4.56-4.34,7.32-3.1,7.84,3,3,34.91,17.62,65,37.52,93.22,10.65,15.08,10.26,15.59,26.77,10.22,5.28-1.72,13.79-.89,15-6.12s-6.78-8.2-10.79-12.05c-16.53-15.87-29.66-34.06-35-56.47a204.58,204.58,0,0,1-5.49-56.62c.12-2.66-1.79-6.14,1.6-7.76s6,1,8.52,2.83c15,10.94,24.88,26,33.46,42,11.57,21.57,22.72,42.95,47.64,52.9,18.5,7.39,20.48,7.42,37-7.07,4-3.49,3.83-6.4-1.65-8a87.58,87.58,0,0,0-10.08-2.78c-14.17-2.48-26.3-10.7-36.26-19.24-8-6.88-10.81-20.4-11.7-32.32-.23-3.12,2.46-4.22,5.15-4.54,31.1-3.77,62.78-14.35,91.77,7.58a3.56,3.56,0,0,0,.84.45c6.8,2.79,12.17,1.74,16.08-5.16C715.73,590.63,717,586.26,709.8,579.65Zm25.72-42.21c-2.8-3.54-7.82-1.66-11.62-.73a475.93,475.93,0,0,0-56.18,16.93h0c-2.15.8-4.29,1.64-6.43,2.5,10.9-2.24,20.72-.91,30,5.65a14,14,0,0,0,9.61,2.37h0a24.34,24.34,0,0,0,6.86-1.68c3-1.18,5.91-2.63,9.06-2.32,9.79,1,14.63-4.16,16.87-12.9C734.48,544,737.59,540.08,735.52,537.44Z"/><path class="cls-7" d="M650.46,558,683,549.81l22.38,4.08s-6.1,15.4-8.88,16.64S650.46,558,650.46,558Z"/><path class="cls-8" d="M331.88,433.45s-28.38-39.74-68.56-7.3C263.32,426.15,288,468.93,331.88,433.45Z"/><path class="cls-9" d="M331,498.38s-39.64-28.52-67.28,15.1C263.71,513.48,300.77,546.09,331,498.38Z"/><path class="cls-10" d="M317.69,466.89s-26.06-27.68-53.64,1.55C264.05,468.44,287.52,498.85,317.69,466.89Z"/><path class="cls-11" d="M366.53,380.63s-6.59-48.39-57.26-38.41C309.27,342.22,311.13,391.55,366.53,380.63Z"/><path class="cls-12" d="M391.06,354.36s7.81-37.2-31.95-43.12C359.11,311.24,347.59,347.89,391.06,354.36Z"/><path class="cls-13" d="M432.76,342.43s16.39-46-33.19-60.43C399.57,282,378.53,326.65,432.76,342.43Z"/><path class="cls-14" d="M667.45,433.45s28.38-39.74,68.56-7.3C736,426.15,711.38,468.93,667.45,433.45Z"/><path class="cls-15" d="M668.34,498.38s39.64-28.52,67.27,15.1C735.61,513.48,698.55,546.09,668.34,498.38Z"/><path class="cls-16" d="M681.64,466.89s26.05-27.68,53.64,1.55C735.28,468.44,711.81,498.85,681.64,466.89Z"/><path class="cls-17" d="M632.8,380.63s6.59-48.39,57.26-38.41C690.06,342.22,688.2,391.55,632.8,380.63Z"/><path class="cls-18" d="M608.27,354.36s-7.81-37.2,32-43.12C640.22,311.24,651.74,347.89,608.27,354.36Z"/><path class="cls-19" d="M566.57,342.43s-16.39-46,33.19-60.43C599.76,282,620.79,326.65,566.57,342.43Z"/><path class="cls-6" d="M628.78,562.75v-48.5s1.21-11.62,16.42-12.8"/><circle class="cls-6" cx="651.9" cy="501.49" r="7.3"/><path class="cls-6" d="M640.13,572.89V535.38s.94-9,12.71-9.89"/><circle class="cls-6" cx="658.02" cy="525.52" r="5.65"/><path class="cls-6" d="M619.85,572.08V543.63s-.71-6.82-9.64-7.51"/><circle class="cls-6" cx="606.28" cy="536.14" r="4.28"/><path class="cls-20" d="M321.5,380.5s-8,10-15.06,27.42"/><path class="cls-21" d="M675.44,381.08s12.13,14.11,16.12,26.84"/><path class="cls-22" d="M442.5,302.5s53-36,116,0"/><path class="cls-23" d="M762.46,256.54a358.15,358.15,0,0,1,43.89,428.81"/><path class="cls-23" d="M188.53,691.47a358.14,358.14,0,0,1,44-429.95"/><g class="cls-24"><rect class="cls-25" x="371.16" y="301.8" width="257.4" height="228.84"/></g><path class="cls-26" d="M497.42,407a29.51,29.51,0,1,1-29.5,29.5,29.5,29.5,0,0,1,29.5-29.5Z"/><path class="cls-27" d="M497.94,410.33a26,26,0,0,1,17.59,6.8l-1,.38-.53.56.13.65.63.09.39,1,1.09-.45.18,1.29h-.32l-.91-.13-1,.16-1,1.36-1.38.23-.19,1.17.59.14-.18.77-1.36-.29-1.27.29-.26.7.21,1.46.75.35,1.24,0,.82-.06.27-.67,1.3-1.7.86.17.84-.76.16.59,2.08,1.41-.25.35-.94-.06.37.52.57.13.68-.29v-.82l.3-.14-.24-.26-1.4-.78-.36-1h1.15l.37.37,1,.85,0,1,1,1.11.38-1.51.72-.4.12,1.24.7.76h.29c.28.73.55,1.48.78,2.23h-1.23l-1.3-1-1.36.13v.83h-.43l-.46-.34-2.39-.58v-1.54l-3,.23-.94.5h-1.19l-.57-.05-1.45.79v1.51l-2.95,2.13.24.9h.6l-.16.88-.41.16,0,2.25,2.56,2.91h1.11l.06-.18h2l.57-.54h1.13l.64.64,1.68.17-.22,2.24,1.87,3.3-1,1.89.08.89.78.77v2.14l1,1.36v1.35a26.15,26.15,0,0,1-46.38-13.72h0c0-.2,0-.41-.05-.61v0c-.06-.67-.08-1.35-.08-2V436l0-.38V435c0-.18,0-.34,0-.5v-.12a25.88,25.88,0,0,1,2.05-8.29v1.43l1.11.54v2.11l1.07,1.81.85.13.11-.62-1-1.58-.21-1.52h.6l.26,1.57,1.48,2.15-.39.69.94,1.43,2.34.59v-.38l.92.14-.08.67.73.13,1.13.31,1.6,1.81,2,.16.21,1.67-1.4,1-.06,1.49-.21.91,2,2.52.16.88s.73.19.82.19,1.64,1.19,1.64,1.19v4.55l.55.16-.38,2.12.94,1.23-.18,2.1,1.24,2.16,1.58,1.38,1.58,0,.16-.51-1.17-1,.08-.47.2-.61.05-.6-.79,0-.4-.49.65-.64.1-.47-.73-.21,0-.45,1-.15,1.58-.77.53-1,1.66-2.13-.38-1.67.53-.87,1.52,0,1-.81.34-3.21,1.14-1.46.19-.92-1-.33-.7-1.14-2.35,0-1.86-.71-.09-1.34-.62-1.08-1.69,0-1-1.52-.88-.42,0,.46-1.58.1-.57-.81-1.65-.34-1.35,1.58-2.13-.37-.16-2.4-1.55-.27.63-1.17-.19-.68-2,1.36-1.29-.14-.46-1,.29-1,.7-1.3,1.63-.83h3.15v1l1.12.52-.09-1.64.82-.82,1.64-1.08.13-.76,1.63-1.7,1.75-1-.16-.13,1.19-1.11.43.11.19.25.46-.49.11-.06-.49-.06-.51-.16v-.5l.27-.2.59,0,.25.13.24.46.29,0V422l.08,0,.81-.13.12-.41.46.13v.43l-.42.3h0l.06.48,1.48.46h0l.35,0v-.63l-1.17-.54-.07-.32,1-.32.05-.94-1-.62-.06-1.57-1.4.68h-.51l.13-1.2-1.9-.45-.78.59v1.83l-1.42.44-.57,1.18-.62.11V420l-1.32-.17-.66-.45-.27-1,2.38-1.4,1.16-.35.11.78.65,0,.05-.39.68-.1,0-.14-.3-.11-.07-.41.84-.08.51-.53,0,0h0l.15-.16,1.76-.22.76.65-2,1.1,2.59.6.33-.86h1.13l.41-.76-.81-.19v-.95l-2.49-1.12-1.73.2-1,.5.07,1.26-1-.16-.16-.68,1-.89-1.78-.1-.51.16-.22.59.66.13-.14.65-1.13.08-.17.44-1.64,0a4.13,4.13,0,0,0-.11-.92l1.29,0,1-1-.53-.27-.71.7-1.18-.07-.71-1H486.3l-1.57,1.17h1.44l.13.43-.36.35,1.58,0,.26.57-1.81-.06-.08-.45-1.13-.24-.6-.33h-1a26,26,0,0,1,14.75-4.56Z"/></g></svg>